<!DOCTYPE svg PUBLIC "-//W3C//DTD SVG 20010904//EN" "http://www.w3.org/TR/2001/REC-SVG-20010904/DTD/svg10.dtd">
<svg version="1.0" xmlns="http://www.w3.org/2000/svg" width="1600px" height="1600px" viewBox="0 0 16000 16000" preserveAspectRatio="xMidYMid meet">
<g id="layer101" fill="#645d5d" stroke="none">
 <path d="M7300 15989 c-521 -28 -1224 -170 -1825 -368 -613 -201 -1221 -487 -1755 -824 -1011 -639 -1905 -1531 -2509 -2507 -46 -74 -92 -146 -101 -160 -33 -49 -194 -347 -280 -520 -74 -148 -123 -251 -216 -456 -120 -267 -297 -812 -409 -1264 -97 -393 -133 -597 -177 -990 -21 -194 -23 -244 -23 -905 0 -654 2 -714 23 -905 30 -284 74 -567 118 -765 98 -434 179 -715 314 -1084 169 -462 352 -853 603 -1291 226 -394 603 -910 930 -1275 150 -166 475 -493 647 -650 547 -498 1165 -915 1854 -1250 105 -51 241 -114 301 -140 61 -25 119 -50 130 -55 50 -22 114 -47 315 -119 187 -68 273 -97 500 -166 136 -42 473 -127 595 -150 723 -136 915 -151 1830 -142 545 6 606 8 800 31 393 47 658 95 1005 181 149 37 216 56 425 120 266 80 626 215 873 326 23 10 63 29 90 40 250 112 625 316 907 493 544 342 934 654 1411 1130 138 138 299 307 359 376 59 69 119 138 133 155 15 16 80 97 147 181 443 556 844 1244 1120 1920 230 564 403 1191 494 1789 61 403 64 467 65 1220 1 688 -2 785 -35 1085 -35 319 -141 839 -236 1160 -14 47 -33 114 -44 150 -32 108 -169 507 -184 537 -8 15 -15 32 -15 36 0 42 -327 737 -445 947 -94 169 -249 426 -278 463 l-29 38 11 94 c14 119 14 469 0 611 -64 647 -296 1221 -697 1724 -102 128 -352 375 -487 482 -374 298 -773 499 -1215 612 -352 90 -841 110 -1321 56 -201 -23 -550 -121 -745 -210 -67 -30 -70 -30 -109 -16 -78 29 -410 106 -675 155 -280 53 -403 71 -550 81 -80 6 -201 15 -270 20 -146 11 -1172 10 -1370 -1z"/>
 </g>
<g id="layer102" fill="#e732c0" stroke="none">
 <path d="M7300 15989 c-521 -28 -1224 -170 -1825 -368 -613 -201 -1221 -487 -1755 -824 -1011 -639 -1905 -1531 -2509 -2507 -46 -74 -92 -146 -101 -160 -33 -49 -194 -347 -280 -520 -74 -148 -123 -251 -216 -456 -120 -267 -297 -812 -409 -1264 -97 -393 -133 -597 -177 -990 -21 -194 -23 -244 -23 -905 0 -654 2 -714 23 -905 30 -284 74 -567 118 -765 98 -434 179 -715 314 -1084 169 -462 352 -853 603 -1291 226 -394 603 -910 930 -1275 150 -166 475 -493 647 -650 547 -498 1165 -915 1854 -1250 105 -51 241 -114 301 -140 61 -25 119 -50 130 -55 50 -22 114 -47 315 -119 187 -68 273 -97 500 -166 136 -42 473 -127 595 -150 723 -136 915 -151 1830 -142 545 6 606 8 800 31 393 47 658 95 1005 181 149 37 216 56 425 120 266 80 626 215 873 326 23 10 63 29 90 40 250 112 625 316 907 493 544 342 934 654 1411 1130 138 138 299 307 359 376 59 69 119 138 133 155 15 16 80 97 147 181 443 556 844 1244 1120 1920 230 564 403 1191 494 1789 61 403 64 467 65 1220 1 688 -2 785 -35 1085 -35 319 -141 839 -236 1160 -14 47 -33 114 -44 150 -32 108 -169 507 -184 537 -8 15 -15 32 -15 36 0 23 -170 402 -276 617 -130 264 -163 325 -317 585 -107 181 -151 245 -170 245 -7 0 -21 -50 -35 -128 -82 -461 -235 -845 -490 -1232 -507 -769 -1355 -1298 -2252 -1405 -370 -44 -831 -22 -1145 56 -679 168 -1295 554 -1724 1079 -389 476 -616 990 -701 1590 -29 199 -28 696 0 895 123 844 579 1603 1270 2112 152 112 260 179 466 290 39 21 82 45 95 55 l24 16 -45 19 c-154 67 -949 223 -1240 243 -80 6 -201 15 -270 20 -146 11 -1172 10 -1370 -1z"/>
 <path d="M9780 14031 l0 -311 571 0 571 0 101 -52 c186 -94 240 -139 570 -470 169 -170 307 -316 307 -325 0 -32 -513 -555 -653 -666 -43 -34 -133 -90 -200 -124 l-122 -62 -572 0 -573 -1 0 -311 0 -312 523 6 c644 7 789 21 973 98 199 83 348 200 764 603 245 238 417 386 474 410 54 22 213 53 319 61 l87 7 0 -194 c0 -106 3 -210 6 -231 l7 -37 82 44 c178 96 758 438 1047 618 74 46 125 84 122 91 -3 7 -37 32 -77 56 -40 24 -108 67 -152 94 -215 133 -668 400 -875 516 l-145 81 -6 -27 c-4 -16 -7 -120 -8 -232 l-1 -203 -82 7 c-212 17 -323 47 -400 107 -86 68 -208 180 -478 439 -407 390 -553 493 -792 563 -164 47 -299 57 -865 63 l-523 6 0 -312z"/>
 </g>
<g id="layer103" fill="#ffffff" stroke="none">
 <path d="M9780 14031 l0 -311 571 0 571 0 101 -52 c186 -94 240 -139 570 -470 169 -170 307 -316 307 -325 0 -32 -513 -555 -653 -666 -43 -34 -133 -90 -200 -124 l-122 -62 -572 0 -573 -1 0 -311 0 -312 523 6 c644 7 789 21 973 98 199 83 348 200 764 603 245 238 417 386 474 410 54 22 213 53 319 61 l87 7 0 -194 c0 -106 3 -210 6 -231 l7 -37 82 44 c178 96 758 438 1047 618 74 46 125 84 122 91 -3 7 -37 32 -77 56 -40 24 -108 67 -152 94 -215 133 -668 400 -875 516 l-145 81 -6 -27 c-4 -16 -7 -120 -8 -232 l-1 -203 -82 7 c-212 17 -323 47 -400 107 -86 68 -208 180 -478 439 -407 390 -553 493 -792 563 -164 47 -299 57 -865 63 l-523 6 0 -312z"/>
 <path d="M8696 11272 c-6 -10 -193 -154 -791 -612 -60 -47 -222 -172 -360 -279 -137 -107 -279 -217 -315 -244 -36 -28 -126 -99 -200 -157 -434 -341 -550 -433 -569 -454 l-22 -24 49 -49 c73 -73 316 -293 1027 -933 2492 -2239 2634 -2367 2741 -2474 61 -61 83 -90 88 -117 7 -39 -1 -97 -17 -116 -21 -27 -140 -8 -227 37 -54 28 -223 134 -1475 930 -533 339 -1157 735 -1385 880 -228 145 -772 490 -1209 768 -437 278 -802 507 -810 509 -9 2 -158 -44 -331 -103 -173 -58 -502 -169 -730 -246 -541 -182 -952 -325 -1015 -353 -111 -49 -219 -157 -255 -253 -26 -69 -25 -96 6 -162 55 -119 181 -195 564 -344 107 -41 265 -103 350 -136 85 -34 178 -70 205 -80 28 -10 232 -90 455 -178 376 -148 1323 -519 1645 -645 77 -30 217 -85 310 -122 142 -56 520 -204 1245 -488 63 -25 214 -84 335 -132 121 -48 272 -107 335 -132 258 -102 731 -287 825 -323 55 -21 170 -66 255 -100 152 -60 529 -208 765 -300 66 -26 316 -124 555 -217 689 -270 712 -278 860 -278 93 0 111 3 155 26 58 29 104 88 114 146 12 65 -5 174 -115 727 -208 1048 -299 1506 -714 3596 -121 614 -143 728 -144 766 l-1 41 -95 22 c-52 13 -167 47 -255 76 -736 242 -1349 731 -1750 1395 -81 134 -90 146 -99 132z"/>
 </g>

</svg>